<svg height="511pt" viewBox="-59 1 511 511.99863" width="511pt" xmlns="http://www.w3.org/2000/svg"><path d="m335.878906 263.328125c11.289063 11.269531 17.539063 26.332031 17.539063 42.355469 0 16.042968-6.257813 31.125-17.621094 42.464844l-146.765625 146.320312c-11.710938 11.6875-27.09375 17.527344-42.46875 17.53125-15.367188 0-30.730469-5.835938-42.425781-17.511719l-86.042969-85.878906c-11.347656-11.324219-17.59375-26.386719-17.59375-42.410156 0-16.042969 6.257812-31.121094 17.621094-42.464844.160156-.160156.328125-.320313.496094-.476563l18.238281-16.996093c8.082031-7.527344 20.734375-7.078125 28.261719 1 7.527343 8.078125 7.082031 20.730469-1 28.257812l-17.945313 16.726563c-3.667969 3.757812-5.683594 8.703125-5.683594 13.953125 0 5.328125 2.082031 10.339843 5.855469 14.105469l86.042969 85.878906c7.820312 7.808594 20.5625 7.796875 28.398437-.027344l146.765625-146.320312c3.785157-3.777344 5.875-8.808594 5.875-14.152344 0-5.328125-2.078125-10.335938-5.851562-14.105469l-85.449219-85.933594c-7.769531-7.75-20.507812-7.738281-28.34375.082031l-20.128906 20.277344c-7.78125 7.839844-20.441406 7.882813-28.277344.105469-7.835938-7.78125-7.886719-20.4375-.105469-28.277344l20.195313-20.34375c23.476562-23.4375 61.566406-23.449219 84.964844-.09375zm39.9375-159.9375-86.042968-85.878906c-23.398438-23.355469-61.488282-23.34375-84.886719.007812l-146.773438 146.152344c-11.363281 11.34375-17.621093 26.421875-17.621093 42.464844 0 16.023437 6.246093 31.085937 17.589843 42.410156l86.042969 85.878906c11.703125 11.679688 27.074219 17.515625 42.445312 17.515625 15.363282 0 30.726563-5.832031 42.40625-17.488281l20.539063-20.351563c7.847656-7.769531 7.90625-20.429687.136719-28.277343-7.773438-7.84375-20.433594-7.902344-28.277344-.132813l-20.597656 20.402344c-7.835938 7.824219-20.578125 7.835938-28.398438.027344l-86.042968-85.878906c-3.773438-3.769532-5.855469-8.777344-5.855469-14.105469 0-5.34375 2.089843-10.375 5.867187-14.144531l146.773438-146.152344c7.839844-7.820313 20.578125-7.835938 28.402344-.027344l86.039062 85.878906c3.777344 3.769532 5.855469 8.777344 5.855469 14.109375 0 5.148438-1.941407 10.003907-5.476563 13.738281l-17.621094 15.277344c-8.34375 7.230469-9.242187 19.859375-2.007812 28.203125 7.230469 8.347657 19.859375 9.246094 28.203125 2.011719l18.242187-15.8125c.351563-.308594.695313-.625 1.027344-.957031 11.363282-11.339844 17.621094-26.421875 17.621094-42.460938 0-16.027343-6.246094-31.089843-17.589844-42.410156zm0 0"/></svg>
